<svg width="96" height="96" viewBox="0 0 96 96" fill="none" xmlns="http://www.w3.org/2000/svg">
  <rect width="96" height="96" rx="18" fill="#8B6F47"/>
  <path d="M48 24C34.8 24 24 34.8 24 48C24 61.2 34.8 72 48 72C61.2 72 72 61.2 72 48C72 34.8 61.2 24 48 24ZM48 66C38.1 66 30 57.9 30 48C30 38.1 38.1 30 48 30C57.9 30 66 38.1 66 48C66 57.9 57.9 66 48 66Z" fill="#F5E6D3"/>
  <path d="M48 36C38.9 36 32 42.9 32 52C32 61.1 38.9 68 48 68C57.1 68 64 61.1 64 52C64 42.9 57.1 36 48 36Z" fill="#F5E6D3"/>
  <path d="M42 60L54 60L54 66L42 66L42 60Z" fill="#F5E6D3"/>
  <path d="M36 42L42 42L42 48L36 48L36 42Z" fill="#F5E6D3"/>
  <path d="M60 42L66 42L66 48L60 48L60 42Z" fill="#F5E6D3"/>
</svg>

