<svg width="512" height="512" viewBox="0 0 512 512" fill="none" xmlns="http://www.w3.org/2000/svg">
  <rect width="512" height="512" rx="96" fill="#8B6F47"/>
  <path d="M256 128C193.8 128 144 177.8 144 240C144 302.2 193.8 352 256 352C318.2 352 368 302.2 368 240C368 177.8 318.2 128 256 128ZM256 320C214.1 320 180 285.9 180 244C180 202.1 214.1 168 256 168C297.9 168 332 202.1 332 244C332 285.9 297.9 320 256 320Z" fill="#F5E6D3"/>
  <path d="M256 192C229.9 192 208 213.9 208 240C208 266.1 229.9 288 256 288C282.1 288 304 266.1 304 240C304 213.9 282.1 192 256 192Z" fill="#F5E6D3"/>
  <path d="M224 320L288 320L288 352L224 352L224 320Z" fill="#F5E6D3"/>
  <path d="M192 224L224 224L224 288L192 288L192 224Z" fill="#F5E6D3"/>
  <path d="M320 224L352 224L352 288L320 288L320 224Z" fill="#F5E6D3"/>
</svg>

