<svg width="192" height="192" viewBox="0 0 192 192" fill="none" xmlns="http://www.w3.org/2000/svg">
  <rect width="192" height="192" rx="36" fill="#8B6F47"/>
  <path d="M96 48C76.8 48 60 64.8 60 84C60 103.2 76.8 120 96 120C115.2 120 132 103.2 132 84C132 64.8 115.2 48 96 48ZM96 132C78.1 132 64 117.9 64 100C64 82.1 78.1 68 96 68C113.9 68 128 82.1 128 100C128 117.9 113.9 132 96 132Z" fill="#F5E6D3"/>
  <path d="M96 72C85.9 72 78 79.9 78 90C78 100.1 85.9 108 96 108C106.1 108 114 100.1 114 90C114 79.9 106.1 72 96 72Z" fill="#F5E6D3"/>
  <path d="M84 120L108 120L108 132L84 132L84 120Z" fill="#F5E6D3"/>
  <path d="M72 84L84 84L84 96L72 96L72 84Z" fill="#F5E6D3"/>
  <path d="M120 84L132 84L132 96L120 96L120 84Z" fill="#F5E6D3"/>
</svg>

